<svg id="icons" xmlns="http://www.w3.org/2000/svg" viewBox="0 0 700 700"><defs><style>.cls-1{fill:#f59f06;}</style></defs><title>icons</title><path class="cls-1" d="M628.54,71.53a94.44,94.44,0,0,0-67.16-28H138.62a95.57,95.57,0,0,0-95.14,95.15V561.31a95.25,95.25,0,0,0,95.14,95.14H561.38a95.25,95.25,0,0,0,95.15-95.14V138.69A94.44,94.44,0,0,0,628.54,71.53Zm-98,552.66H169.44a232.23,232.23,0,0,1-7.1-57.66c0-80.66,40-150.81,98.84-186.45-52.4-26.7-87.76-76-87.76-132.64,0-84.78,79.09-153.51,176.65-153.51s176.52,68.73,176.52,153.51c0,56.66-35.36,105.94-87.76,132.64,58.79,35.64,98.84,105.79,98.84,186.45A232.7,232.7,0,0,1,530.57,624.19Z"/></svg>