<svg id="icons" xmlns="http://www.w3.org/2000/svg" viewBox="0 0 700 700"><defs><style>.cls-1{fill:#fbcc33;}</style></defs><title>icon-</title><path class="cls-1" d="M384.85,594c7.1,0,13.95-.14,20.51-0.6A50.09,50.09,0,0,1,357,630.79H343a50.08,50.08,0,0,1-48.39-37.39c11.62,0.79,24.16.61,37.34,0.42,11.73-.17,24.31-0.17,36,0C373.76,593.9,379.37,594,384.85,594Z"/><path class="cls-1" d="M476.71,114.9C444.59,83.13,399.59,65.63,350,65.63s-94.59,17.5-126.71,49.27c-34.26,33.89-52.37,81.67-52.37,138.17,0,35.92,7.47,65.78,22.85,91.3,13.33,22.12,32.63,41.88,62.57,64.06l8,5.95v109.1c0,10.16,1.76,17.4,5.25,21.58a10.92,10.92,0,0,0,.85.94c4.34,4.27,12.4,6.41,22.56,7.44,11,1.11,24.5.91,38.38,0.71,6-.09,12.21-0.18,18.59-0.18s12.59,0.09,18.59.18c13.88,0.2,27.37.4,38.38-.71,10.16-1,18.22-3.17,22.56-7.44a10.93,10.93,0,0,0,.85-0.94c3.48-4.18,5.25-11.42,5.25-21.58V414.38l8-5.95c29.94-22.18,49.24-41.94,62.56-64.05,15.39-25.53,22.86-55.4,22.86-91.31C529.08,196.57,511,148.79,476.71,114.9Zm0.55,99.66c8.47-23.17-37.88-74.45-37.88-74.45C504.52,140.11,481.17,204.78,477.26,214.56Z"/></svg>