<svg id="icons" xmlns="http://www.w3.org/2000/svg" viewBox="0 0 700 700"><defs><style>.cls-1{fill:#fbcc33;}</style></defs><title>icons</title><path class="cls-1" d="M390.44,451.36h68.39v25.39H78.68V451.36H258.13l5.7-92.61H78.68V333.37H265.41l0.34-5.51,87.1-87.1H78.68V215.38H378.23l90.57-90.56H94.73a85.12,85.12,0,0,0-85,85V587.56a85.13,85.13,0,0,0,85,85H472.45a85.13,85.13,0,0,0,85-85V284.31Zm78,143.39H78.68V569.36h389.8v25.39Z"/><polygon class="cls-1" points="690.3 115.61 570.17 235.73 557.49 248.42 378.91 427 284.95 428.94 290.49 339.01 500.1 129.42 519.53 109.98 602.11 27.41 690.3 115.61"/></svg>