<svg id="icons" xmlns="http://www.w3.org/2000/svg" viewBox="0 0 700 700"><defs><style>.cls-1{fill:#f59f06;}</style></defs><title>icons</title><polygon class="cls-1" points="488.52 214.31 492.36 208.22 492.36 214.31 488.52 214.31"/><polygon class="cls-1" points="211.13 214.31 211.89 212.18 213.72 214.31 211.13 214.31"/><polygon class="cls-1" points="312.17 308.82 230.82 214.31 488.52 214.31 428.89 308.82 312.17 308.82"/><polygon class="cls-1" points="379.53 387.07 334.48 334.73 412.55 334.73 379.53 387.07"/><path class="cls-1" d="M442.15,549.65L582.48,354.19v214A86.88,86.88,0,0,1,495.7,655H110.24a86.88,86.88,0,0,1-86.78-86.77V182.76A86.88,86.88,0,0,1,110.24,96H495.7a86.38,86.38,0,0,1,55,19.72l-58.36,92.52V188.41H93.86v25.9H197.39l-33.52,94.51h-70v25.91h60.82l-11.54,32.52,62.93,62H93.86v25.9h138.5l95.94,94.51H93.86v25.9H354.6L395,615.34l28.57-39.79h68.08v-25.9H442.15Z"/><polygon class="cls-1" points="381.66 429.24 383.55 429.24 382.75 430.51 381.66 429.24"/><polygon class="cls-1" points="391.51 575.55 391.66 575.55 391.6 575.64 391.51 575.55"/><polygon class="cls-1" points="213.72 214.31 211.13 214.31 211.89 212.18 213.72 214.31"/><polygon class="cls-1" points="492.36 208.22 492.36 214.31 488.52 214.31 492.36 208.22"/><polygon class="cls-1" points="381.66 429.24 383.55 429.24 382.75 430.51 381.66 429.24"/><polygon class="cls-1" points="213.72 214.31 211.13 214.31 211.89 212.18 213.72 214.31"/><polygon class="cls-1" points="676.54 178.76 608.38 273.7 595.43 291.73 582.48 309.77 481.8 450 478.11 455.14 410.26 549.65 391.66 575.55 391.51 575.55 365.22 549.65 269.28 455.14 242.98 429.24 173.06 360.36 182.15 334.73 191.35 308.82 216.64 237.54 278 308.82 300.3 334.73 381.66 429.24 382.75 430.51 383.55 429.24 443.18 334.73 459.52 308.82 568.66 135.82 576.13 123.99 583.53 112.26 625.96 45 676.54 178.76"/><polygon class="cls-1" points="381.66 429.24 383.55 429.24 382.75 430.51 381.66 429.24"/><polygon class="cls-1" points="391.51 575.55 391.66 575.55 391.6 575.64 391.51 575.55"/><path class="cls-1" d="M207.15,186.81l-0.57,1.6h1.95ZM381.66,429.24l1.09,1.27,0.8-1.27h-1.89ZM211.89,212.18l-0.76,2.13h2.59Zm276.63,2.13h3.84v-6.09ZM381.66,429.24l1.09,1.27,0.8-1.27h-1.89Z"/></svg>