<svg id="Layer_1" data-name="Layer 1" xmlns="http://www.w3.org/2000/svg" viewBox="0 0 1038.15 245.32"><defs><style>.cls-1{fill:#fff;}</style></defs><title>logo</title><path class="cls-1" d="M114.43,151.78v8.59H70.7V81.27h9v70.52h34.69Z"/><path class="cls-1" d="M179.18,134H130.59c1.58,11.64,10.06,19,21.58,19,7.35,0,13.79-2.6,18.42-7.46l4.86,5.2c-5.65,6.33-14,9.95-24,9.95-17.52,0-29.61-12.32-29.61-30.06s12.21-30.06,29.5-30.06C170.59,100.48,180.08,113.81,179.18,134Zm-7.91-7.23c-0.57-11.41-8.25-18.65-19.89-18.65-11.3,0-19.44,7.35-20.79,18.65h40.68Z"/><path class="cls-1" d="M205.73,160.37l-23.62-59.55h9.38l19,50.4,18.87-50.4h8.93l-23.39,59.55h-9.15Z"/><path class="cls-1" d="M298.05,134H249.46c1.58,11.64,10.06,19,21.58,19,7.35,0,13.79-2.6,18.42-7.46l4.86,5.2c-5.65,6.33-14,9.95-24,9.95-17.52,0-29.61-12.32-29.61-30.06s12.21-30.06,29.5-30.06C289.46,100.48,299,113.81,298.05,134Zm-7.91-7.23c-0.56-11.41-8.25-18.65-19.89-18.65-11.3,0-19.44,7.35-20.79,18.65h40.68Z"/><path class="cls-1" d="M313.76,160.37V76.52h8.81v83.85h-8.81Z"/><path class="cls-1" d="M410.49,127.82c0,20.57-12.43,33-33.11,33S344,148.39,344,127.82V81.27h9v46.56c0,15.37,9.27,24.3,24.3,24.3s24.07-8.93,24.07-24.3V81.27h9v46.56Z"/><path class="cls-1" d="M492.3,130.76c0,17.63-11.53,29.95-28.37,29.95-10.62,0-18.76-4.86-23.17-13.11v34.69H432V100.81h8.81V113.7c4.41-8.36,12.54-13.22,22.94-13.22C480.55,100.48,492.3,112.91,492.3,130.76Zm-8.93-.23c0-12.77-8.81-22.15-21.25-22.15s-21.36,9.27-21.36,22.15,8.81,22.15,21.36,22.15S483.37,143.42,483.37,130.54Z"/><path class="cls-1" d="M552.75,151.78v8.59H509V81.27h9v70.52h34.69Z"/><path class="cls-1" d="M617.5,134H568.91c1.58,11.64,10.06,19,21.58,19,7.35,0,13.79-2.6,18.42-7.46l4.86,5.2c-5.65,6.33-14,9.95-24,9.95-17.52,0-29.61-12.32-29.61-30.06s12.21-30.06,29.5-30.06C608.91,100.48,618.41,113.81,617.5,134Zm-7.91-7.23c-0.56-11.41-8.25-18.65-19.89-18.65-11.3,0-19.44,7.35-20.79,18.65h40.68Z"/><path class="cls-1" d="M669.59,151.22c-4.75,6.44-12.32,9.61-21.81,9.61-12.32,0-20.23-7.91-20.23-18.2s8.25-17,22.26-17.06h19.55v-3.5c0-8.7-5.42-13.9-15.93-13.9-6.55,0-12.66,2.49-18.87,6.78l-3.73-6.44c7.68-5.09,14.13-8,24.3-8,14.69,0,22.83,7.8,22.94,20.57l0.11,39.33h-8.59v-9.15Zm-0.11-11.41v-7.12H650.95c-9.95,0-15.14,3.05-15.14,9.61s5.31,10.85,13.67,10.85C659.54,153.14,667.22,148.05,669.48,139.8Z"/><path class="cls-1" d="M706.66,114c4-8.7,11.3-13.45,21.36-13.56v8.93c-12.54-.23-20.34,7.57-21.36,19.32v31.64h-8.81V100.81h8.81V114Z"/><path class="cls-1" d="M794.35,123.64v36.73h-8.81V126c0-10.51-6.33-16.72-16.84-16.72-11.75.11-19,7.8-20,19.1v32h-8.81V100.81h8.81v13.11c4.18-9,12.21-13.33,23.05-13.45C786,100.48,794.35,109.29,794.35,123.64Z"/><path class="cls-1" d="M824.06,83.75a5.77,5.77,0,1,1-5.76-6.1A5.8,5.8,0,0,1,824.06,83.75ZM814,160.37V100.81h8.7v59.55H814Z"/><path class="cls-1" d="M898.64,123.64v36.73h-8.81V126c0-10.51-6.33-16.72-16.84-16.72-11.75.11-19,7.8-20,19.1v32h-8.81V100.81H853v13.11c4.18-9,12.21-13.33,23.05-13.45C890.28,100.48,898.64,109.29,898.64,123.64Z"/><path class="cls-1" d="M970.17,154.15c0,17.4-11.87,28.37-29.95,28.37a40.07,40.07,0,0,1-24.41-8.59l4.07-6.78a30.52,30.52,0,0,0,20,7.57c13,0,21.47-7.91,21.47-20.34v-9c-4.18,7.91-11.87,12.43-21.92,12.43-16,0-27.12-11.87-27.12-28.82,0-16.61,11-28.36,26.9-28.48,10.17,0,17.86,4.52,22.15,12.43V100.81h8.81v53.34Zm-8.81-24.86c0-12.43-8.48-21.13-20.34-21.13s-20.34,8.81-20.45,21.13c0.11,12.21,8.48,21,20.45,21S961.36,141.5,961.36,129.29Z"/></svg>