<svg id="Layer_1" data-name="Layer 1" xmlns="http://www.w3.org/2000/svg" xmlns:xlink="http://www.w3.org/1999/xlink" viewBox="0 0 500 500"><defs><style>.cls-1{fill:url(#radial-gradient);}.cls-2{fill:#131313;}.cls-3{fill:none;stroke:#131313;stroke-miterlimit:10;stroke-width:17.48px;}</style><radialGradient id="radial-gradient" cx="250" cy="250" r="245" gradientTransform="matrix(-0.64, -0.77, 0.61, -0.51, 257.49, 570.07)" gradientUnits="userSpaceOnUse"><stop offset="0" stop-color="#ff9833"/><stop offset="1" stop-color="#86490d"/></radialGradient></defs><title>planet-</title><circle class="cls-1" cx="250" cy="250" r="245"/><path class="cls-2" d="M120.2,149.82c0,30.8,14,55.78,31.17,55.78s31.15-25,31.15-55.78S168.58,94,151.37,94c-5.08,0-9.88,2.18-14.12,6,8.37,2.17,14.12,6.67,14.12,11.87,0,7.34-11.46,13.29-25.59,13.29-0.8,0-1.6,0-2.38-.06A93.43,93.43,0,0,0,120.2,149.82Z"/><path class="cls-2" d="M317.48,149.82c0,30.8,14,55.78,31.17,55.78s31.15-25,31.15-55.78S365.85,94,348.64,94c-5.08,0-9.88,2.18-14.12,6,8.37,2.17,14.12,6.67,14.12,11.87,0,7.34-11.46,13.29-25.59,13.29-0.8,0-1.6,0-2.38-.06A93.43,93.43,0,0,0,317.48,149.82Z"/><path class="cls-3" d="M136.39,321.29s112.1-52.45,222.14,0"/><path class="cls-3" d="M108.63,293.52s29.82,10,32.91,60.53"/><path class="cls-3" d="M381.55,293.52s-29.82,10-32.91,60.53"/></svg>