<svg id="Layer_1" data-name="Layer 1" xmlns="http://www.w3.org/2000/svg" xmlns:xlink="http://www.w3.org/1999/xlink" viewBox="0 0 500 500"><defs><style>.cls-1{fill:url(#linear-gradient);}.cls-2{fill:#131313;}</style><linearGradient id="linear-gradient" x1="372.52" y1="462.21" x2="127.48" y2="37.79" gradientUnits="userSpaceOnUse"><stop offset="0" stop-color="#2a79ff"/><stop offset="1" stop-color="#00d5fb"/></linearGradient></defs><title>planet-</title><circle class="cls-1" cx="250" cy="250" r="245"/><path class="cls-2" d="M165,150.5c0,23.23-10.87,42.07-24.25,42.07s-24.24-18.84-24.24-42.07,10.85-42.07,24.24-42.07a16.54,16.54,0,0,1,11,4.56c-6.51,1.64-11,5-11,9,0,5.54,8.92,10,19.91,10,0.62,0,1.24,0,1.85,0A68.44,68.44,0,0,1,165,150.5Z"/><path class="cls-2" d="M315.39,128.17c0,23.23-10.87,42.07-24.25,42.07S266.9,151.4,266.9,128.17,277.75,86.1,291.14,86.1a16.54,16.54,0,0,1,11,4.56c-6.51,1.64-11,5-11,9,0,5.54,8.92,10,19.91,10,0.62,0,1.24,0,1.85,0A68.44,68.44,0,0,1,315.39,128.17Z"/><path class="cls-2" d="M187.1,253.63L271,236.18s-4.09,32.15-37.07,39S187.1,253.63,187.1,253.63Z"/></svg>