<svg id="Layer_1" data-name="Layer 1" xmlns="http://www.w3.org/2000/svg" xmlns:xlink="http://www.w3.org/1999/xlink" viewBox="0 0 830.76 500"><defs><style>.cls-1{fill:url(#linear-gradient);}.cls-2{fill:#ff9833;}.cls-3{fill:#131313;}</style><linearGradient id="linear-gradient" x1="1289.78" y1="-1464.66" x2="1754" y2="-1307.84" gradientTransform="translate(-963.04 -1271.89) rotate(90)" gradientUnits="userSpaceOnUse"><stop offset="0" stop-color="#dddd47"/><stop offset="1" stop-color="#ff9e5f"/></linearGradient></defs><title>planet-</title><circle class="cls-1" cx="423.21" cy="250" r="244.93" transform="translate(36.38 553.26) rotate(-68.67)"/><path class="cls-2" d="M707.42,314.94c-13.29-7.8-27.57-15.76-42.71-23.82a245.24,245.24,0,0,1-10,38.79q9.77,5.29,19,10.48c65.93,37.29,88,58.91,95.3,68.23-11.66,2-42.57,2.87-116.32-14.42q-13-3.05-26.8-6.63C559,370.25,479.51,344,398.8,312.49s-156.93-66.09-217.87-98.7c-8.35-4.47-16.43-8.9-24.18-13.28-66-37.28-88.07-58.9-95.32-68.24,11.65-1.94,42.56-2.85,116.33,14.42q10.27,2.41,21,5.15a245.24,245.24,0,0,1,19-35.28c-16.59-4.33-32.48-8.16-47.55-11.43C76.88,84.87,32.36,88.31,21.31,116.59S40.67,177.59,123,226c16.9,9.94,35.43,20.12,55.28,30.42,59.27,30.79,130.46,62.68,206.35,92.32s149.86,54.44,214.3,72c21.58,5.88,42.1,11,61.26,15.1C753.56,456,798.11,452.58,809.15,424.3S789.78,363.3,707.42,314.94Z"/><path class="cls-3" d="M546.15,232.48c-6.53,30.7-26.19,52.53-43.88,48.77s-26.73-31.7-20.2-62.4,26.17-52.54,43.86-48.77c5.23,1.11,9.69,4.33,13.23,9.12-9.07.33-15.93,3.56-17,8.74-1.56,7.32,9,15.75,23.49,18.85,0.82,0.17,1.65.33,2.46,0.46A92.45,92.45,0,0,1,546.15,232.48Z"/><path class="cls-3" d="M368.81,169.07c-6.53,30.7-26.19,52.53-43.88,48.77s-26.73-31.7-20.2-62.4,26.17-52.54,43.86-48.77c5.23,1.11,9.69,4.33,13.23,9.12-9.07.33-15.93,3.56-17,8.74-1.56,7.32,9,15.75,23.49,18.85,0.82,0.17,1.65.33,2.46,0.46A92.45,92.45,0,0,1,368.81,169.07Z"/></svg>