<svg id="Layer_1" data-name="Layer 1" xmlns="http://www.w3.org/2000/svg" xmlns:xlink="http://www.w3.org/1999/xlink" viewBox="0 0 500 500"><defs><style>.cls-1{fill:url(#linear-gradient);}.cls-2{fill:#131313;}</style><linearGradient id="linear-gradient" x1="-4940.27" y1="462.21" x2="-5185.31" y2="37.79" gradientTransform="matrix(-1, 0, 0, 1, -4812.79, 0)" gradientUnits="userSpaceOnUse"><stop offset="0" stop-color="#af510d"/><stop offset="0.25" stop-color="#a67b22"/><stop offset="0.4" stop-color="#a73d1f"/><stop offset="0.84" stop-color="#a67b22"/><stop offset="1" stop-color="#af510d"/></linearGradient></defs><title>planet-</title><circle class="cls-1" cx="250" cy="250" r="245"/><path class="cls-2" d="M184.07,149.54c0,21.77-17.88,39.42-39.91,39.42a39.43,39.43,0,1,1,18.07-74.58c-10.72,1.53-18.07,4.71-18.07,8.39,0,5.19,14.67,9.4,32.77,9.4,1,0,2,0,3,0A38.93,38.93,0,0,1,184.07,149.54Z"/><path class="cls-2" d="M353.22,135.38C353.22,160,333,180,308,180s-45.17-20-45.17-44.65S283.09,90.73,308,90.73a45.34,45.34,0,0,1,20.47,4.84c-12.14,1.74-20.47,5.34-20.47,9.5,0,5.88,16.61,10.64,37.1,10.64,1.16,0,2.32,0,3.45-.05A44.08,44.08,0,0,1,353.22,135.38Z"/><path class="cls-2" d="M122,250l3.09,0.84,3.61,1,4.78,1.21,5.8,1.38c2.11,0.44,4.3,1,6.68,1.47,4.68,1,9.93,2,15.43,2.85s11.38,1.53,17.37,2.11c1.52,0.07,3,.19,4.55.31,0.76,0.07,1.52.13,2.29,0.12l2.31,0.09c1.54,0,3.07.18,4.64,0.15s3.12,0,4.67,0,3.14-.13,4.71-0.13l2.36,0c0.79,0,1.58-.13,2.37-0.18l4.74-.27,4.77-.5c0.79-.08,1.59-0.16,2.39-0.21s1.59-.24,2.39-0.35c1.59-.25,3.19-0.47,4.79-0.64s3.19-.64,4.8-0.88,3.22-.46,4.81-0.91c3.2-.75,6.43-1.29,9.63-2.23,1.6-.43,3.2-0.85,4.82-1.21s3.18-1,4.79-1.44l4.81-1.37,4.76-1.62c1.58-.53,3.19-1,4.78-1.51s3.13-1.17,4.69-1.75,3.13-1.12,4.7-1.65c0.39-.14.79-0.26,1.17-0.41l1.14-.48,2.3-.91c3-1.26,6.15-2.25,9.1-3.51s5.87-2.44,8.77-3.55c0.72-.28,1.45-0.54,2.15-0.83s1.39-.62,2.08-0.91c1.39-.59,2.74-1.19,4.11-1.73,2.7-1.14,5.4-2.12,7.91-3.18s4.91-2.1,7.23-3,4.52-1.78,6.61-2.54,3.9-1.61,5.65-2.26,3.3-1.27,4.71-1.75,2.6-.9,3.6-1.22c2-.65,3.11-0.94,3.11-0.94s-0.31,1.09-1,3c-0.34,1-.78,2.19-1.34,3.57s-1.2,3-2,4.74-1.63,3.71-2.64,5.78-2.27,4.17-3.61,6.44-2.8,4.68-4.4,7.19c-0.76,1.29-1.72,2.44-2.62,3.72s-1.89,2.51-2.87,3.81-2,2.59-3.08,3.93c-0.53.67-1.06,1.34-1.62,2s-1.16,1.28-1.75,1.94c-2.39,2.59-4.91,5.23-7.58,7.9-1.29,1.39-2.78,2.59-4.23,3.88s-3,2.56-4.5,3.83a100.39,100.39,0,0,1-9.85,7.37c-1.74,1.18-3.47,2.41-5.28,3.55s-3.74,2.17-5.66,3.22l-5.81,3.17-6.16,2.75c-1,.47-2.08.9-3.12,1.34s-2.07.93-3.17,1.28c-2.16.78-4.36,1.49-6.56,2.21a124.39,124.39,0,0,1-13.53,3.57c-2.27.55-4.63,0.82-7,1.19s-4.66.65-7,.89-4.7.3-7,.39c-1.17,0-2.34.11-3.5,0.14s-2.34-.05-3.51-0.1c-2.33-.09-4.65-0.15-6.95-0.29l-6.84-.8c-1.13-.15-2.25-0.29-3.37-0.49l-3.32-.66c-1.1-.21-2.19-0.45-3.28-0.69s-2.17-.44-3.23-0.76a114.83,114.83,0,0,1-12.29-4,108.58,108.58,0,0,1-11.19-5,110.36,110.36,0,0,1-18.49-12.09,98.86,98.86,0,0,1-13.15-12.84,81.31,81.31,0,0,1-8.22-11.44c-0.5-.85-1-1.62-1.39-2.39l-1.13-2.18c-0.69-1.36-1.22-2.54-1.62-3.52s-0.68-1.74-.86-2.26S122,250,122,250Z"/></svg>