<svg id="Layer_1" data-name="Layer 1" xmlns="http://www.w3.org/2000/svg" viewBox="0 0 500 500"><defs><style>.cls-1{fill:#007aff;}.cls-2{fill:#45ce13;}.cls-3{fill:none;stroke:#007aff;stroke-miterlimit:10;stroke-width:21.61px;}.cls-4{fill:#131313;}</style></defs><title>planet-</title><circle class="cls-1" cx="250" cy="250" r="235"/><path class="cls-2" d="M128.33,48.91s46.43-11.79,60.87,33.23-141.85,38.22-78.14,107S235.35,346.3,174.05,337s-135-113-150-22.09C24.07,314.87-16.79,136.15,128.33,48.91Z"/><path class="cls-2" d="M34.09,342.9S145.36,352,155,390.66s83.18,67,67.57,92.74C222.59,483.4,92,470.35,34.09,342.9Z"/><path class="cls-2" d="M310.91,47.52s-70.09,14.45-70.09,35S295.54,174.1,310.91,155s91.84-73.71,81-9.67-147.43,73.71-112.38,129.3S452.56,289,421.61,410.53c0,0,66.94-112.91,34.31-192.67,0,0,3.77-38.15,29.08-10,0,0-8.06-104.6-137.6-171.76C347.4,36.08,302.45,12.53,310.91,47.52Z"/><circle class="cls-3" cx="250" cy="250" r="235"/><path class="cls-4" d="M201.91,223.83c0,53-12.48,96-27.86,96s-27.85-43-27.85-96,12.47-96,27.85-96c4.55,0,8.83,3.75,12.62,10.41a22.87,22.87,0,0,0,10.26,43.31,18.23,18.23,0,0,0,2.13-.11A302.9,302.9,0,0,1,201.91,223.83Z"/><path class="cls-4" d="M353.13,223.83c0,53-12.48,96-27.86,96s-27.85-43-27.85-96,12.47-96,27.85-96c4.55,0,8.83,3.75,12.62,10.41a22.87,22.87,0,0,0,10.26,43.31,18.23,18.23,0,0,0,2.13-.11A302.9,302.9,0,0,1,353.13,223.83Z"/><path class="cls-4" d="M175.66,354H329.91s-19,63.34-79.6,63.34S175.66,354,175.66,354Z"/></svg>