<svg id="Layer_1" data-name="Layer 1" xmlns="http://www.w3.org/2000/svg" xmlns:xlink="http://www.w3.org/1999/xlink" viewBox="0 0 500 500"><defs><style>.cls-1{fill:url(#radial-gradient);}.cls-2{fill:#131313;}</style><radialGradient id="radial-gradient" cx="250" cy="250" r="245" gradientTransform="translate(-104.01 136.84) rotate(-30) scale(1 1.1)" gradientUnits="userSpaceOnUse"><stop offset="0" stop-color="#ff9833"/><stop offset="1" stop-color="#86330d"/></radialGradient></defs><title>planet-</title><circle class="cls-1" cx="250" cy="250" r="245"/><path class="cls-2" d="M165.86,219.75c0,45.37-10.68,82.14-23.84,82.14s-23.83-36.78-23.83-82.14,10.67-82.14,23.83-82.14c3.89,0,7.56,3.21,10.8,8.91a19.57,19.57,0,0,0,8.78,37.06,15.6,15.6,0,0,0,1.82-.09A259.16,259.16,0,0,1,165.86,219.75Z"/><path class="cls-2" d="M297.67,219.75c0,45.37-10.68,82.14-23.84,82.14S250,265.12,250,219.75s10.67-82.14,23.83-82.14c3.89,0,7.56,3.21,10.8,8.91a19.57,19.57,0,0,0,8.78,37.06,15.6,15.6,0,0,0,1.82-.09A259.16,259.16,0,0,1,297.67,219.75Z"/><path d="M164.52,371.86s1.61,0.54,4.21,1.51l4.61,1.73,5.76,2.2c2.08,0.78,4.29,1.63,6.59,2.45s4.7,1.66,7.13,2.47,4.92,1.55,7.42,2.16,5,1.16,7.46,1.6c1.23,0.15,2.47.4,3.68,0.47,0.61,0.05,1.22.12,1.82,0.19s1.2,0,1.8.07a12.5,12.5,0,0,0,1.79,0h1.77c1.18,0,2.33-.15,3.5-0.18s2.29-.26,3.42-0.44,2.25-.37,3.34-0.63,2.17-.53,3.24-0.79,2.06-.66,3.08-0.94,1.93-.72,2.89-1,1.85-.64,2.68-1,1.63-.69,2.4-1l1.1-.43,1-.44c2.49-1.14,4.14-1.71,4.14-1.71a35.75,35.75,0,0,1-1.62,4.27c-0.15.33-.29,0.7-0.48,1.05l-0.61,1.09c-0.42.77-.93,1.56-1.47,2.44a23.09,23.09,0,0,1-1.92,2.63c-0.35.46-.74,0.9-1.13,1.37a16.5,16.5,0,0,1-1.26,1.39c-0.91.9-1.89,1.82-2.94,2.76s-2.28,1.72-3.53,2.6a19.22,19.22,0,0,1-2,1.19c-0.68.39-1.38,0.76-2.1,1.14a22,22,0,0,1-2.24,1c-0.77.31-1.54,0.63-2.34,0.93-1.61.49-3.28,1-5,1.34a42,42,0,0,1-5.24.71c-0.89.06-1.78,0.1-2.68,0.14s-1.78,0-2.67-.08a46.59,46.59,0,0,1-5.31-.54,51.07,51.07,0,0,1-10-2.76,53.66,53.66,0,0,1-8.78-4.33,57.74,57.74,0,0,1-7.24-5.27,54.86,54.86,0,0,1-5.65-5.55,50.07,50.07,0,0,1-6.78-9.67A26.16,26.16,0,0,1,164.52,371.86Z"/></svg>