<svg id="Layer_1" data-name="Layer 1" xmlns="http://www.w3.org/2000/svg" xmlns:xlink="http://www.w3.org/1999/xlink" viewBox="0 0 500 500"><defs><style>.cls-1{fill:url(#linear-gradient);}.cls-2{fill:#131313;}</style><linearGradient id="linear-gradient" x1="-1529.99" y1="867.85" x2="-1775.03" y2="443.43" gradientTransform="matrix(-1, 0, 0, 1, -1402.51, -405.64)" gradientUnits="userSpaceOnUse"><stop offset="0" stop-color="#2a51ff"/><stop offset="1" stop-color="#00d5b3"/></linearGradient></defs><title>planet-</title><circle class="cls-1" cx="250" cy="250" r="245" transform="translate(-103.55 250) rotate(-45)"/><path class="cls-2" d="M319.24,113.38c-24.46,28.54-36,58.75-25.88,67.46s38.24-7.36,62.7-35.9S392.12,86.2,382,77.49c-3-2.57-7.57-3-13.14-1.55,3.22,6.25,3,13.33-1.09,18.15-5.83,6.8-17.33,6.51-25.68-.65-0.47-.4-0.93-0.82-1.36-1.26A175.62,175.62,0,0,0,319.24,113.38Z"/><path class="cls-2" d="M218.17,57.68c-24.46,28.54-36,58.75-25.88,67.46s38.24-7.36,62.7-35.9S291,30.5,280.88,21.79c-3-2.57-7.57-3-13.14-1.55,3.22,6.25,3,13.33-1.09,18.15-5.83,6.8-17.33,6.51-25.68-.65-0.47-.4-0.93-0.82-1.36-1.26A175.62,175.62,0,0,0,218.17,57.68Z"/><path class="cls-2" d="M237,219.46l-64.62-56.31s1.9,13.88,27.3,36S237,219.46,237,219.46Z"/></svg>