<svg id="Layer_1" data-name="Layer 1" xmlns="http://www.w3.org/2000/svg" viewBox="0 0 279.4 108.34"><defs><style>.cls-1,.cls-2{fill:#fff;}.cls-1{fill-rule:evenodd;}</style></defs><title>status-bar-health</title><path class="cls-1" d="M324.68,75.54c11,0,17.11,8.93,17.11,20s-6.08,20-17.11,20V75.54Z" transform="translate(-62.38 -41.33)"/><path class="cls-2" d="M301.87,47a11.42,11.42,0,0,1,11.4,11.4v74.13a11.42,11.42,0,0,1-11.4,11.4H79.49a11.42,11.42,0,0,1-11.4-11.4V58.44A11.42,11.42,0,0,1,79.49,47H301.87m0-5.7H79.49A17.11,17.11,0,0,0,62.38,58.44v74.13a17.11,17.11,0,0,0,17.11,17.11H301.87A17.11,17.11,0,0,0,319,132.56V58.44a17.11,17.11,0,0,0-17.11-17.11h0Z" transform="translate(-62.38 -41.33)"/><path class="cls-1" d="M85.19,52.73h211a11.4,11.4,0,0,1,11.4,11.4v62.72a11.4,11.4,0,0,1-11.4,11.4h-211a11.4,11.4,0,0,1-11.4-11.4V64.14A11.4,11.4,0,0,1,85.19,52.73Z" transform="translate(-62.38 -41.33)"/></svg>