<svg id="Layer_1" data-name="Layer 1" xmlns="http://www.w3.org/2000/svg" viewBox="0 0 429.97 70.59"><defs><style>.cls-1{fill-rule:evenodd;}</style></defs><title>status-bar-phonebars</title><path class="cls-1" d="M386.32,57.11A35.3,35.3,0,1,1,351,92.4,35.29,35.29,0,0,1,386.32,57.11Z" transform="translate(-351.03 -57.11)"/><path class="cls-1" d="M476.17,57.11a35.3,35.3,0,1,1-35.3,35.3A35.29,35.29,0,0,1,476.17,57.11Z" transform="translate(-351.03 -57.11)"/><path class="cls-1" d="M566,57.11a35.3,35.3,0,1,1-35.3,35.3A35.29,35.29,0,0,1,566,57.11Z" transform="translate(-351.03 -57.11)"/><path d="M655.86,57.11a35.3,35.3,0,1,0,35.3,35.3,35.3,35.3,0,0,0-35.3-35.3h0Z" transform="translate(-351.03 -57.11)"/><path d="M745.7,60.32A32.09,32.09,0,1,1,713.62,92.4,32.12,32.12,0,0,1,745.7,60.32m0-3.21A35.3,35.3,0,1,0,781,92.4a35.3,35.3,0,0,0-35.3-35.3h0Z" transform="translate(-351.03 -57.11)"/></svg>